<svg width="202" height="56" viewBox="0 0 202 56" fill="none" xmlns="http://www.w3.org/2000/svg">
<path d="M53.9209 25.8452C53.9209 23.1558 51.7843 21.5527 48.7079 21.5527H44.6196V34.9998H47.5494V30.0993H48.7103C51.7867 30.0993 53.9233 28.5154 53.9233 25.8452H53.9209ZM48.6886 27.7055H47.547V23.9489H48.6886C50.0514 23.9489 50.9358 24.6483 50.9358 25.8452C50.9358 27.0421 50.0514 27.7055 48.6886 27.7055Z" fill="white"/>
<path d="M58.3619 29.3446H63.9812V34.9998H66.9278V21.5527H63.9812V26.9124H58.3619V21.5527H55.4346V34.9998H58.3619V29.3446Z" fill="white"/>
<path d="M72.6915 21.5527H69.7617V34.9998H72.6915V21.5527Z" fill="white"/>
<path d="M84.3116 21.5527H79.9277V34.9998H84.3116C88.1619 34.9998 91.2383 32.1085 91.2383 28.2775C91.2383 24.4464 88.1619 21.5551 84.3116 21.5551V21.5527ZM84.0905 32.5676H82.8575V23.985H84.1289C86.6165 23.985 88.2917 25.9366 88.2917 28.2775C88.2917 30.6184 86.6165 32.57 84.0929 32.57L84.0905 32.5676Z" fill="white"/>
<path d="M101.831 32.5676H96.1949V29.3446H101.372V26.9124H96.1949V23.985H101.795V21.5527H93.3228V34.9998H101.831V32.5676Z" fill="white"/>
<path d="M112.446 32.5676H107.142V21.5527H104.212V34.9998H112.446V32.5676Z" fill="white"/>
<path d="M118.354 34.9998V23.985H122.517V21.5527H111.245V23.985H115.408V34.9998H118.354Z" fill="white"/>
<path d="M130.934 32.5677L132.112 34.9999H135.224L128.187 21.0024L121.133 34.9999H124.226L125.406 32.5677H130.932H130.934ZM128.189 26.8572L129.864 30.3205H126.512L128.187 26.8572H128.189Z" fill="white"/>
<path d="M147.215 34.9998V23.985H151.378V21.5527H140.105V23.985H144.268V34.9998H147.215Z" fill="white"/>
<path d="M161.469 34.9998H164.416V21.5527H161.469V26.9124H155.853V21.5527H152.923V34.9998H155.853V29.3446H161.469V34.9998Z" fill="white"/>
<path d="M175.765 32.5676H170.129V29.3446H175.303V26.9124H170.129V23.985H175.729V21.5527H167.254V34.9998H175.765V32.5676Z" fill="white"/>
<path d="M181.196 34.9998H184.143V23.985H188.306V21.5527H177.034V23.985H181.196V34.9998Z" fill="white"/>
<path d="M193.978 21L186.924 34.9975H190.018L191.195 32.5652H196.721L197.898 34.9975H201.011L193.976 21H193.978ZM192.301 30.3204L193.978 26.8571L195.654 30.3204H192.301Z" fill="white"/>
<path d="M32.5124 27.6226C31.2503 24.2714 31.8145 20.5328 33.9739 17.7164L31.6604 15.0518L31.6468 15.0586C29.5781 16.094 27.2602 16.6401 24.9468 16.6401C24.3214 16.6401 23.696 16.5948 23.0752 16.5155V45.3867C23.1228 45.3686 23.1681 45.3482 23.2157 45.3301L29.3493 42.4978C31.384 41.5575 32.9746 39.8989 33.8243 37.8234C34.674 35.7479 34.708 33.4503 33.9172 31.3522L32.5124 27.6226ZM28.4611 37.3476L28.9437 38.9404L27.5774 37.9888L26.2111 38.9404L26.6937 37.3476L25.3682 36.3415L27.0336 36.3075L27.5797 34.735L28.1257 36.3075L29.7911 36.3415L28.4656 37.3476H28.4611ZM28.4611 29.7026L28.9437 31.2955L27.5774 30.3439L26.2111 31.2955L26.6937 29.7026L25.3682 28.6966L27.0336 28.6626L27.5797 27.0901L28.1257 28.6626L29.7911 28.6966L28.4656 29.7026H28.4611ZM28.4611 22.0577L28.9437 23.6506L27.5774 22.6989L26.2111 23.6506L26.6937 22.0577L25.3682 21.0517L27.0336 21.0177L27.5797 19.4452L28.1257 21.0177L29.7911 21.0517L28.4656 22.0577H28.4611Z" fill="white"/>
<path d="M5.95662 15.0518L3.64321 17.7164C5.80255 20.5351 6.36901 24.2714 5.10467 27.6226L3.69985 31.3522C2.90908 33.4503 2.9408 35.7479 3.79275 37.8234C4.64244 39.8989 6.23306 41.5575 8.26777 42.4978L14.4014 45.3301C14.449 45.3482 14.4943 45.3686 14.5419 45.3867V16.5155C13.921 16.5948 13.2957 16.6401 12.6703 16.6401C10.3569 16.6401 8.04119 16.094 5.97022 15.0586L5.95662 15.0518ZM9.49359 21.0177L10.0397 19.4452L10.5857 21.0177L12.2511 21.0517L10.9256 22.0577L11.4082 23.6506L10.0419 22.6989L8.67562 23.6506L9.15825 22.0577L7.83274 21.0517L9.49812 21.0177H9.49359ZM9.49359 28.6626L10.0397 27.0901L10.5857 28.6626L12.2511 28.6966L10.9256 29.7026L11.4082 31.2955L10.0419 30.3439L8.67562 31.2955L9.15825 29.7026L7.83274 28.6966L9.49812 28.6626H9.49359ZM9.49359 36.3075L10.0397 34.735L10.5857 36.3075L12.2511 36.3415L10.9256 37.3476L11.4082 38.9404L10.0419 37.9888L8.67562 38.9404L9.15825 37.3476L7.83274 36.3415L9.49812 36.3075H9.49359Z" fill="white"/>
<path d="M35.0955 26.6484C34.1144 24.0472 34.6401 21.1266 36.4641 19.0284L37.6196 17.7007L36.4663 16.3729L33.3712 12.8087L32.3402 11.6237L30.9354 12.3261L30.4097 12.5889C28.7217 13.4318 26.832 13.8782 24.9446 13.8782C23.6304 13.8782 22.3117 13.6584 21.0609 13.2392V12.3737C21.1312 12.3057 21.1923 12.2309 21.2535 12.1562L24.7814 13.2415L26.4604 10.9213L24.7814 8.60107L21.2535 9.6864C20.9544 9.30574 20.5217 8.99985 20.005 8.81179V8.22494C20.005 8.00062 19.7649 7.83748 19.5179 7.89413L17.9023 8.25893C17.7301 8.29745 17.6101 8.4334 17.6101 8.58974V8.81406C17.0957 9.00212 16.6607 9.30801 16.3616 9.68867L12.8337 8.60333L11.1547 10.9235L12.8337 13.2438L16.3616 12.1584C16.4658 12.2921 16.5882 12.4167 16.7241 12.53V13.1826C15.4235 13.638 14.0436 13.8782 12.6705 13.8782C10.7831 13.8782 8.89339 13.4318 7.20535 12.5889L6.68194 12.3261L5.27712 11.6237L4.24844 12.8087L1.15331 16.3729L0 17.7007L1.15557 19.0284C2.97957 21.1266 3.50524 24.0472 2.52414 26.6484L1.11932 30.378C0.0815699 33.131 0.124621 36.1468 1.23941 38.8703C2.35647 41.5939 4.44103 43.7713 7.11245 45.0039L13.2733 47.8476L13.3458 47.8815L13.4205 47.9087C14.6781 48.3732 15.8064 49.1232 16.7286 50.0885V50.3717C16.7286 51.0379 16.8759 51.6972 17.1614 52.3045L18.8993 56L20.6372 52.3022C20.9227 51.6949 21.07 51.0356 21.07 50.3694V49.914C21.9582 49.0326 23.0254 48.3438 24.2082 47.9065L24.2829 47.8793L24.3554 47.8453L30.5162 45.0017C33.1877 43.7691 35.2745 41.5893 36.3893 38.8681C37.5041 36.1445 37.5494 33.1287 36.5094 30.3757L35.1046 26.6462L35.0955 26.6484ZM24.1719 10.4228L24.5344 10.9235L24.1719 11.4243L22.5473 10.9235L24.1719 10.4228ZM13.4432 11.422L13.0807 10.9213L13.4432 10.4205L15.0678 10.9213L13.4432 11.422ZM16.7241 15.3079V47.4035C15.9265 46.8234 15.0519 46.3521 14.1184 46.0077L7.95987 43.1641C7.88963 43.1324 7.82166 43.0938 7.75368 43.0599C7.40248 42.8876 7.0626 42.6996 6.74312 42.4911C6.73632 42.4866 6.73179 42.4821 6.72499 42.4798C3.02489 40.0599 1.40935 35.3424 3.01129 31.0895L3.93349 28.6446L4.41837 27.3599C4.71746 26.5646 4.90326 25.7466 4.98483 24.9241C5.14797 23.2655 4.87381 21.5934 4.19406 20.0752C3.8134 19.2256 3.31038 18.4212 2.68275 17.6984L5.77787 14.1342L5.95234 14.2226L6.30128 14.3971C8.30428 15.3986 10.4885 15.9016 12.6705 15.9016C14.0368 15.9016 15.4009 15.7022 16.7241 15.3079ZM19.0851 50.1564C19.0851 50.3128 19.0579 50.4669 19.0035 50.6141L18.8064 51.1489L18.6093 50.6141C18.5549 50.4669 18.5277 50.3128 18.5277 50.1564V13.1848C18.709 13.2438 18.9016 13.2438 19.0828 13.1848V50.1587L19.0851 50.1564ZM20.4016 11.0776C20.3381 11.3133 20.1342 11.5489 19.8283 11.7166C19.5564 11.8661 19.2075 11.9636 18.8064 11.9636C18.7928 11.9636 18.7815 11.9636 18.7679 11.9636C18.3827 11.9568 18.0474 11.8616 17.7868 11.7166C17.7777 11.7121 17.7687 11.7075 17.7619 11.703C17.4696 11.5353 17.277 11.3065 17.2135 11.0776C17.1999 11.0255 17.1909 10.9734 17.1909 10.9213C17.1909 10.8692 17.1999 10.8171 17.2135 10.7649C17.2249 10.7264 17.2362 10.6879 17.2543 10.6494C17.3427 10.4591 17.5172 10.2778 17.7596 10.1396C17.7687 10.135 17.7777 10.1305 17.7845 10.126C17.8276 10.1033 17.8706 10.0807 17.9159 10.0603C18.1652 9.94924 18.4665 9.879 18.8041 9.879C19.2052 9.879 19.5541 9.97643 19.8238 10.126C19.8532 10.1418 19.8827 10.16 19.9121 10.1781C20.1682 10.3412 20.3404 10.5519 20.3993 10.7649C20.4129 10.8171 20.422 10.8692 20.422 10.9213C20.422 10.9734 20.4129 11.0255 20.3993 11.0776H20.4016ZM34.853 37.0871C34.1121 39.686 32.2836 41.9519 29.6575 43.1641L23.499 46.0077C22.6311 46.3294 21.8154 46.7622 21.0632 47.2856V15.3623C22.3321 15.7226 23.6394 15.9016 24.9468 15.9016C27.1311 15.9016 29.3131 15.4008 31.3161 14.3971L31.776 14.1682L31.8418 14.1365L32.9112 15.3691L34.9346 17.7007C32.6235 20.3585 31.9573 24.0676 33.199 27.3622L34.3546 30.4278L34.6061 31.094C35.3561 33.0857 35.3991 35.1793 34.853 37.0894V37.0871Z" fill="white"/>
<path d="M18.8091 2.11629C19.3937 2.11629 19.8673 1.64273 19.8673 1.05814C19.8673 0.473559 19.3937 0 18.8091 0C18.2245 0 17.751 0.473559 17.751 1.05814C17.751 1.64273 18.2245 2.11629 18.8091 2.11629Z" fill="white"/>
<path d="M18.17 3.69324L19.6723 3.35336C19.8694 3.30805 20.0076 3.15397 20.0076 2.97497V2.73026C20.0076 2.47422 19.7312 2.28842 19.4479 2.35186L17.9457 2.68947C17.7486 2.73479 17.6104 2.88887 17.6104 3.06787V3.31258C17.6104 3.56862 17.8868 3.75442 18.17 3.69097V3.69324Z" fill="white"/>
<path d="M19.6652 6.47345L17.7279 6.91075C17.5308 6.95607 17.3926 7.11015 17.3926 7.28915V7.53386C17.3926 7.7899 17.669 7.97569 17.9522 7.91225L19.8895 7.47494C20.0867 7.42963 20.2249 7.27555 20.2249 7.09655V6.85184C20.2249 6.5958 19.9484 6.41 19.6652 6.47345Z" fill="white"/>
<path d="M17.9522 5.13198L19.8895 4.69467C20.0867 4.64935 20.2249 4.49528 20.2249 4.31628V4.07157C20.2249 3.81553 19.9484 3.62973 19.6652 3.69317L17.7279 4.13048C17.5308 4.17579 17.3926 4.32987 17.3926 4.50887V4.75358C17.3926 5.00962 17.669 5.19542 17.9522 5.13198Z" fill="white"/>
<path d="M17.7301 6.57298L20.1115 6.03598C20.3086 5.99066 20.4468 5.83659 20.4468 5.65759V5.41288C20.4468 5.15684 20.1704 4.97104 19.8871 5.03448L17.5058 5.57148C17.3086 5.6168 17.1704 5.77088 17.1704 5.94988V6.19459C17.1704 6.45063 17.4468 6.63643 17.7301 6.57298Z" fill="white"/>
</svg>
